<?xml version="1.0" standalone="no"?>
<!DOCTYPE svg PUBLIC "-//W3C//DTD SVG 20010904//EN"
 "http://www.w3.org/TR/2001/REC-SVG-20010904/DTD/svg10.dtd">
<svg version="1.0" xmlns="http://www.w3.org/2000/svg"
 width="1488.000000pt" height="1488.000000pt" viewBox="0 0 1488.000000 1488.000000"
 preserveAspectRatio="xMidYMid meet">
<metadata>
Created by potrace 1.14, written by Peter Selinger 2001-2017
</metadata>
<g transform="translate(0.000000,1488.000000) scale(0.100000,-0.100000)"
fill="#000000" stroke="none">
<path d="M308 10382 c-31 -10 -63 -23 -70 -29 -6 -7 -18 -13 -24 -13 -14 0
-118 -100 -147 -140 -9 -13 -27 -49 -40 -80 l-22 -55 0 -2625 0 -2625 22 -55
c46 -111 142 -207 253 -253 l55 -22 2600 -3 c2377 -2 2605 -1 2659 14 86 23
134 51 196 114 74 73 120 168 126 255 6 93 7 165 3 170 -3 2 -2 29 1 59 3 30
3 63 -1 73 -3 10 -3 28 0 41 4 13 4 50 1 83 -3 32 -3 59 0 59 3 0 4 44 2 97
-3 124 -2 205 4 214 2 4 0 10 -6 14 -6 4 -8 10 -5 14 4 7 6 58 5 136 -1 18 -1
237 -1 260 0 24 0 302 0 320 0 11 1 72 1 136 1 64 0 120 -1 125 -1 5 0 14 1
19 2 12 1 84 -2 188 -2 42 -1 77 2 77 3 0 4 44 2 97 -3 124 -2 205 4 214 2 4
0 10 -6 14 -6 4 -8 10 -5 14 4 7 5 48 5 136 0 11 0 59 0 106 1 47 0 90 -1 95
-1 5 0 14 1 19 1 8 1 87 -1 120 0 6 -1 57 0 115 0 58 0 112 0 120 0 8 0 80 0
160 0 80 0 154 0 165 0 11 0 62 0 114 1 51 -2 97 -5 102 -3 5 -2 9 3 9 4 0 7
44 5 97 -3 124 -2 205 4 214 2 4 1 10 -4 13 -4 3 -5 29 -2 60 3 30 3 63 -1 73
-3 10 -3 28 0 41 4 13 4 50 1 83 -3 32 -3 59 0 59 3 0 4 44 2 97 -3 124 -2
205 4 214 2 4 1 10 -4 13 -4 3 -5 29 -2 60 3 30 3 63 -1 73 -3 10 -3 28 0 41
4 13 4 50 1 83 -3 32 -3 59 0 59 6 0 4 89 -4 175 -13 144 -90 264 -219 339
-25 15 -53 29 -64 31 -10 2 -34 9 -53 14 -24 8 -841 11 -2625 10 -2386 -1
-2594 -2 -2647 -17z m1101 -806 c177 -28 346 -182 396 -358 17 -62 28 -194 17
-213 -3 -5 -7 -22 -9 -38 -6 -58 -63 -167 -120 -232 -39 -44 -112 -95 -178
-126 -62 -28 -82 -32 -175 -35 -162 -5 -270 36 -380 146 -103 102 -148 212
-148 359 -1 148 55 271 166 371 74 66 68 62 132 89 100 44 187 54 299 37z
m2821 -1340 c19 -4 46 -9 60 -12 14 -3 36 -8 50 -10 47 -9 155 -47 162 -58 4
-6 8 -8 8 -3 0 9 124 -59 158 -87 196 -163 293 -356 347 -691 24 -153 27 -241
28 -1150 l2 -870 -437 0 c-382 0 -438 2 -439 15 0 8 -2 373 -4 810 -2 437 -6
815 -9 840 -41 309 -167 445 -421 455 -169 7 -299 -36 -390 -130 -45 -47 -96
-129 -101 -163 -2 -8 -6 -21 -10 -30 -9 -20 -8 -19 -17 -57 -29 -129 -31 -188
-31 -982 -1 -414 -3 -754 -6 -754 -3 -1 -199 -2 -437 -3 -424 -1 -432 -1 -435
19 -5 35 -2 2795 4 2800 4 5 325 7 761 5 l77 0 0 -192 0 -192 29 46 c73 115
256 270 381 322 25 10 59 25 75 32 27 11 80 25 149 40 10 2 21 5 23 8 7 7 382
0 423 -8z m-2490 -59 c13 -2 15 -167 15 -1410 0 -774 -2 -1408 -5 -1408 -3 -1
-198 -2 -433 -3 -374 -1 -430 1 -436 14 -5 11 -7 2746 -2 2805 1 9 814 11 861
2z"/>
<path d="M7979 8818 c0 -7 -1 -479 -3 -1048 -2 -569 -6 -1051 -10 -1070 -3
-19 -8 -42 -9 -50 -30 -151 -146 -259 -304 -285 -47 -7 -138 -8 -176 0 -47 9
-137 46 -137 56 0 5 -5 9 -11 9 -28 0 -119 132 -119 174 0 8 -5 18 -10 21 -6
4 -8 10 -5 15 3 5 1 11 -5 15 -6 4 -8 10 -5 14 2 5 1 21 -4 38 -5 16 -12 65
-16 109 -6 70 -18 100 -35 89 -5 -3 -55 -12 -117 -19 -81 -11 -131 -18 -157
-23 l-28 -5 6 -107 c3 -58 12 -137 21 -176 64 -298 253 -481 550 -531 83 -14
287 -8 384 11 29 5 109 33 133 46 10 5 23 9 29 9 25 0 151 94 201 150 111 122
163 274 183 530 5 57 10 1831 6 2008 l-1 32 -180 0 c-137 0 -180 -3 -181 -12z"/>
<path d="M11030 8767 c-1 -71 0 -2618 0 -2658 0 -25 4 -27 46 -31 25 -2 48 0
51 5 2 4 9 5 14 1 13 -8 188 -9 195 -1 4 3 6 59 6 124 l0 118 19 -25 c27 -34
101 -111 129 -133 57 -48 176 -102 245 -113 17 -3 41 -8 55 -13 26 -8 161 -7
220 2 307 44 557 264 676 591 8 23 17 52 20 66 2 14 7 32 10 40 32 86 47 361
29 530 -7 73 -10 91 -20 128 -2 9 -9 37 -15 62 -19 81 -89 247 -117 278 -7 7
-13 17 -13 21 0 16 -98 131 -149 174 -28 24 -68 53 -89 63 -20 10 -39 22 -42
25 -13 16 -179 73 -250 86 -47 8 -193 10 -239 2 -104 -18 -139 -29 -208 -64
-77 -41 -125 -77 -182 -137 -24 -26 -47 -46 -50 -44 -3 2 -6 220 -5 485 l0
481 -168 -1 -168 0 0 -62z m964 -942 c101 -18 245 -131 309 -243 17 -31 32
-59 33 -62 0 -3 4 -13 7 -22 4 -10 10 -26 14 -35 3 -10 8 -22 10 -28 2 -5 12
-55 22 -110 15 -79 18 -136 16 -270 -2 -93 -6 -181 -8 -195 -12 -63 -40 -166
-48 -175 -5 -5 -9 -16 -9 -25 0 -19 -66 -126 -105 -171 -135 -153 -316 -208
-510 -155 -62 16 -142 64 -194 117 -148 148 -198 337 -190 724 0 19 13 116 25
183 16 97 85 236 151 308 134 144 284 194 477 159z"/>
<path d="M9618 8114 c-2 -1 -26 -5 -53 -8 -240 -25 -466 -150 -607 -336 -61
-81 -138 -254 -152 -344 -3 -21 -8 -41 -10 -45 -3 -4 -8 -31 -11 -61 -4 -30
-8 -66 -11 -80 -5 -34 -5 -286 1 -335 4 -37 13 -95 21 -138 19 -104 101 -312
137 -349 7 -7 23 -29 36 -48 50 -73 178 -182 271 -231 25 -13 48 -24 53 -25 4
-1 9 -3 12 -4 3 -1 8 -3 13 -5 4 -1 21 -7 37 -15 65 -27 252 -56 355 -54 77 1
172 11 202 20 15 4 46 12 75 18 7 1 16 5 19 9 4 4 14 7 22 7 7 0 44 14 80 32
37 17 69 32 72 33 6 1 88 54 108 70 24 19 127 120 147 145 27 33 85 127 88
143 1 7 5 14 8 17 26 22 82 245 94 377 8 94 9 296 1 353 -15 109 -19 129 -38
200 -11 41 -39 113 -62 160 -53 109 -59 120 -68 120 -5 0 -8 5 -8 10 0 18
-111 135 -169 178 -20 15 -38 29 -41 32 -23 23 -188 102 -240 115 -3 1 -16 5
-30 8 -14 4 -37 9 -53 11 -15 3 -36 7 -47 11 -19 6 -247 15 -252 9z m177 -284
c0 -1 15 -4 34 -7 73 -10 181 -72 255 -147 143 -143 199 -311 200 -596 0 -97
-11 -237 -19 -251 -2 -3 -7 -21 -10 -40 -16 -95 -77 -218 -146 -293 -44 -48
-168 -145 -177 -138 -1 1 -19 -5 -39 -13 -45 -19 -118 -29 -203 -29 -175 1
-308 66 -422 206 -65 79 -122 216 -134 318 -3 25 -8 59 -11 75 -8 38 -7 263 1
335 15 141 80 312 143 378 7 7 16 18 20 25 10 15 109 98 143 119 24 14 141 53
185 60 20 4 180 2 180 -2z"/>
<path d="M13738 8115 c-2 -2 -28 -5 -58 -8 -114 -13 -270 -66 -350 -120 -104
-71 -187 -185 -224 -309 -14 -48 -15 -202 -2 -268 9 -43 77 -172 108 -204 77
-79 194 -142 346 -187 34 -11 92 -28 130 -40 37 -11 78 -22 92 -25 14 -2 32
-7 40 -11 8 -3 28 -8 45 -10 16 -3 37 -9 46 -14 10 -5 28 -9 42 -9 13 0 27 -3
31 -7 3 -4 12 -8 19 -9 31 -4 163 -47 171 -55 6 -5 18 -9 28 -9 10 0 18 -4 18
-10 0 -5 6 -10 14 -10 23 0 84 -76 96 -120 21 -78 -3 -176 -59 -236 -95 -106
-185 -137 -391 -138 -99 0 -260 26 -260 43 0 4 -15 12 -33 19 -73 26 -182 168
-203 262 -3 14 -7 32 -9 40 -2 8 -4 23 -4 32 -1 12 -7 16 -23 12 -13 -2 -39
-7 -58 -10 -19 -2 -48 -7 -65 -9 -16 -3 -43 -7 -60 -10 -16 -3 -46 -7 -65 -11
-74 -11 -71 -6 -45 -97 13 -45 29 -98 37 -117 14 -38 75 -147 93 -167 33 -38
95 -101 95 -97 0 3 10 -4 21 -15 48 -44 202 -112 288 -126 19 -3 37 -7 40 -9
13 -8 161 -19 251 -19 113 0 199 9 272 29 29 8 60 17 69 19 80 18 229 107 300
179 192 196 220 523 61 723 -36 44 -105 96 -177 132 -52 25 -269 102 -330 116
-11 2 -54 14 -95 26 -41 11 -82 22 -90 24 -8 2 -15 4 -15 5 0 1 -7 3 -15 5 -8
2 -40 11 -70 19 -30 9 -66 19 -79 22 -209 46 -319 155 -289 286 13 59 44 102
104 144 49 34 156 70 174 59 5 -3 11 -1 14 4 7 10 257 7 275 -3 6 -4 24 -10
38 -12 107 -20 235 -157 247 -267 3 -27 7 -32 27 -30 13 2 49 5 79 8 30 3 61
7 70 9 8 3 38 8 65 11 87 10 90 11 89 31 -3 60 -34 164 -55 191 -6 7 -9 13 -5
13 7 0 -41 78 -60 98 -8 7 -19 21 -26 31 -32 45 -201 141 -275 157 -6 1 -27 7
-45 12 -18 6 -50 13 -70 16 -21 4 -54 9 -73 12 -36 5 -252 13 -257 9z"/>
</g>
</svg>
