<svg width="69" height="69" viewBox="0 0 69 69" fill="none" xmlns="http://www.w3.org/2000/svg">
<path d="M45.5555 54V49.5555C45.5555 47.198 44.619 44.9371 42.9521 43.2701C41.2851 41.6031 39.0241 40.6666 36.6667 40.6666H18.8889C16.5314 40.6666 14.2705 41.6031 12.6035 43.2701C10.9365 44.9371 10 47.198 10 49.5555V54" stroke="#181818" stroke-width="4" stroke-linecap="round" stroke-linejoin="round"/>
<path d="M27.7776 31.7778C32.6868 31.7778 36.6664 27.7981 36.6664 22.8889C36.6664 17.9797 32.6868 14 27.7776 14C22.8684 14 18.8887 17.9797 18.8887 22.8889C18.8887 27.7981 22.8684 31.7778 27.7776 31.7778Z" stroke="#181818" stroke-width="4" stroke-linecap="round" stroke-linejoin="round"/>
<path d="M58.8893 53.9999V49.5554C58.8879 47.5859 58.2323 45.6727 57.0257 44.1161C55.819 42.5596 54.1296 41.4478 52.2227 40.9554" stroke="#181818" stroke-width="4" stroke-linecap="round" stroke-linejoin="round"/>
<path d="M43.3335 14.2888C45.2455 14.7784 46.9402 15.8904 48.1505 17.4495C49.3607 19.0086 50.0176 20.9262 50.0176 22.8999C50.0176 24.8736 49.3607 26.7912 48.1505 28.3503C46.9402 29.9095 45.2455 31.0215 43.3335 31.511" stroke="#181818" stroke-width="4" stroke-linecap="round" stroke-linejoin="round"/>
</svg>
