<svg width="69" height="69" viewBox="0 0 69 69" fill="none" xmlns="http://www.w3.org/2000/svg">
<path d="M41.556 36.5H27.3955C27.0597 36.5 26.7799 36.6089 26.556 36.8265C26.3321 37.0442 26.2202 37.3147 26.2202 37.6381C26.2202 37.9615 26.3321 38.2351 26.556 38.459C26.7799 38.6828 27.0597 38.7948 27.3955 38.7948H41.556C41.8793 38.7948 42.1499 38.6828 42.3675 38.459C42.5852 38.2351 42.694 37.9615 42.694 37.6381C42.694 37.3147 42.5852 37.0442 42.3675 36.8265C42.1499 36.6089 41.8793 36.5 41.556 36.5ZM41.556 43.0112H27.3955C27.0597 43.0112 26.7799 43.1232 26.556 43.347C26.3321 43.5709 26.2202 43.8508 26.2202 44.1866C26.2202 44.4975 26.3321 44.7618 26.556 44.9795C26.7799 45.1972 27.0597 45.306 27.3955 45.306H41.556C41.8793 45.306 42.1499 45.1972 42.3675 44.9795C42.5852 44.7618 42.694 44.4975 42.694 44.1866C42.694 43.8508 42.5852 43.5709 42.3675 43.347C42.1499 43.1232 41.8793 43.0112 41.556 43.0112ZM24.7836 54H44.597C46.5249 54 47.9708 53.5118 48.9347 52.5355C49.8986 51.5591 50.3806 50.1008 50.3806 48.1605V31.2202C50.3806 30.4117 50.3371 29.7338 50.25 29.1866C50.1629 28.6393 49.9919 28.1387 49.7369 27.6847C49.4819 27.2307 49.1057 26.7488 48.6082 26.2388L38.3283 15.7724C37.8557 15.2873 37.3955 14.9173 36.9477 14.6623C36.5 14.4074 36.0118 14.2332 35.4832 14.14C34.9546 14.0467 34.342 14 33.6455 14H24.7836C22.8557 14 21.4098 14.4913 20.4459 15.4739C19.482 16.4565 19 17.9179 19 19.8582V48.1605C19 50.1132 19.482 51.5746 20.4459 52.5448C21.4098 53.5149 22.8557 54 24.7836 54ZM24.9142 50.9963C23.9565 50.9963 23.2319 50.7475 22.7407 50.25C22.2494 49.7525 22.0037 49.0373 22.0037 48.1045V19.9142C22.0037 18.9938 22.2494 18.2786 22.7407 17.7687C23.2319 17.2587 23.9627 17.0038 24.9328 17.0038H33.2351V27.8433C33.2351 29.0125 33.5273 29.8893 34.1119 30.4739C34.6965 31.0585 35.5734 31.3508 36.7425 31.3508H47.3769V48.1045C47.3769 49.0373 47.1312 49.7525 46.6399 50.25C46.1486 50.7475 45.4179 50.9963 44.4477 50.9963H24.9142ZM37.0783 28.5336C36.7052 28.5336 36.4409 28.4528 36.2854 28.2911C36.13 28.1294 36.0522 27.862 36.0522 27.4888V17.5821L46.7985 28.5336H37.0783Z" fill="#181818"/>
</svg>
