<svg width="69" height="69" viewBox="0 0 69 69" fill="none" xmlns="http://www.w3.org/2000/svg">
<path d="M35 4C18.433 4 5 17.433 5 34C5 50.567 18.433 64 35 64C51.567 64 65 50.567 65 34C65 17.433 51.567 4 35 4ZM35 58.9107C21.2455 58.9107 10.0893 47.7545 10.0893 34C10.0893 28.0402 12.1853 22.5625 15.6808 18.2768L50.7232 53.3192C46.4375 56.8147 40.9598 58.9107 35 58.9107ZM54.3192 49.7232L19.2768 14.6808C23.5625 11.1853 29.0402 9.08929 35 9.08929C48.7545 9.08929 59.9107 20.2455 59.9107 34C59.9107 39.9598 57.8147 45.4375 54.3192 49.7232Z" fill="#F44E24"/>
</svg>
