<svg width="69" height="69" viewBox="0 0 69 69" fill="none" xmlns="http://www.w3.org/2000/svg">
<path d="M35.0001 64C39.1078 64 42.9712 63.2174 46.5904 61.652C50.2096 60.0867 53.4 57.9232 56.1617 55.1615C58.9235 52.3998 61.0869 49.2094 62.652 45.5902C64.2173 41.9711 65 38.1077 65 34C65 29.8923 64.2173 26.0289 62.652 22.4098C61.0869 18.7906 58.9235 15.6002 56.1617 12.8385C53.4 10.0768 50.2046 7.91325 46.5754 6.34795C42.9463 4.78265 39.0779 4 34.9702 4C30.8625 4 26.9991 4.78265 23.3799 6.34795C19.7608 7.91325 16.5753 10.0768 13.8236 12.8385C11.0718 15.6002 8.91325 18.7906 7.34794 22.4098C5.78265 26.0289 5 29.8923 5 34C5 38.1077 5.78265 41.9711 7.34794 45.5902C8.91325 49.2094 11.0768 52.3998 13.8385 55.1615C16.6002 57.9232 19.7907 60.0867 23.4098 61.652C27.029 63.2174 30.8924 64 35.0001 64ZM35.0001 60.1117C31.391 60.1117 28.0061 59.4387 24.8456 58.0927C21.685 56.7468 18.9083 54.8774 16.5155 52.4845C14.1227 50.0917 12.2533 47.315 10.9073 44.1545C9.56135 40.994 8.88836 37.6092 8.88836 34C8.88836 30.3908 9.56135 27.006 10.9073 23.8454C12.2533 20.6849 14.1227 17.9033 16.5155 15.5005C18.9083 13.0977 21.68 11.2233 24.8306 9.87735C27.9812 8.53139 31.361 7.85841 34.9702 7.85841C38.5993 7.85841 41.9892 8.53139 45.1398 9.87735C48.2903 11.2233 51.067 13.0977 53.4698 15.5005C55.8726 17.9033 57.752 20.6849 59.1079 23.8454C60.464 27.006 61.1421 30.3908 61.1421 34C61.1421 37.6092 60.464 40.994 59.1079 44.1545C57.752 47.315 55.8826 50.0917 53.4997 52.4845C51.1169 54.8774 48.3452 56.7468 45.1846 58.0927C42.0241 59.4387 38.6293 60.1117 35.0001 60.1117ZM31.7399 48.1775C32.4976 48.1775 33.1257 47.8285 33.6243 47.1306L48.1308 24.3988C48.2704 24.1994 48.395 23.9751 48.5047 23.7258C48.6144 23.4766 48.6692 23.2223 48.6692 22.9631C48.6692 22.4646 48.4748 22.0558 48.0859 21.7368C47.6971 21.4177 47.2634 21.2582 46.7848 21.2582C46.1667 21.2582 45.6283 21.5972 45.1697 22.2752L31.6502 43.661L24.7708 35.1665C24.4916 34.8076 24.2174 34.5683 23.9483 34.4486C23.6791 34.329 23.3849 34.2692 23.0659 34.2692C22.5674 34.2692 22.1436 34.4436 21.7947 34.7926C21.4457 35.1416 21.2712 35.5753 21.2712 36.0937C21.2712 36.5523 21.4507 37.0409 21.8096 37.5593L29.8257 47.1306C30.1048 47.4895 30.3989 47.7537 30.708 47.9232C31.0171 48.0927 31.361 48.1775 31.7399 48.1775Z" fill="#7FBA00" stroke="#7FBA00"/>
</svg>
