<svg width="69" height="69" viewBox="0 0 69 69" fill="none" xmlns="http://www.w3.org/2000/svg">
<path d="M34.5578 54C37.6335 54 40.546 53.6232 43.2953 52.8695C46.0449 52.1158 48.5906 51.117 50.9325 49.8729C53.2744 48.6288 55.3793 47.2592 57.2471 45.764C59.1149 44.2689 60.7075 42.7686 62.025 41.2631C63.3424 39.7575 64.3514 38.3653 65.052 37.0863C65.7524 35.8073 66.1026 34.7755 66.1026 33.9908C66.1026 33.2061 65.7514 32.1753 65.049 30.8982C64.3467 29.6211 63.3336 28.2298 62.0099 26.7243C60.6862 25.2188 59.0887 23.7185 57.2173 22.2233C55.3458 20.7281 53.2369 19.3606 50.8907 18.1208C48.5443 16.8809 46.0005 15.8841 43.2592 15.1305C40.518 14.3768 37.6175 14 34.5578 14C31.5196 14 28.632 14.3768 25.8948 15.1305C23.1577 15.8841 20.616 16.8809 18.2698 18.1208C15.9236 19.3606 13.8126 20.7281 11.9368 22.2233C10.0611 23.7185 8.45719 25.2188 7.12509 26.7243C5.79297 28.2298 4.77242 29.6211 4.06345 30.8982C3.35448 32.1753 3 33.2061 3 33.9908C3 34.7755 3.35142 35.8073 4.05427 37.0863C4.75712 38.3653 5.77269 39.7575 7.10097 41.2631C8.42926 42.7686 10.0303 44.2689 11.9041 45.764C13.7779 47.2592 15.888 48.6288 18.2342 49.8729C20.5804 51.117 23.124 52.1158 25.865 52.8695C28.6059 53.6232 31.5035 54 34.5578 54ZM34.5578 51.4201C31.8239 51.4201 29.2195 51.0778 26.7445 50.3932C24.2696 49.7086 21.9652 48.8092 19.8314 47.6947C17.6976 46.5803 15.7693 45.3602 14.0465 44.0343C12.3237 42.7084 10.8497 41.3884 9.62447 40.0742C8.39926 38.7599 7.45877 37.5661 6.803 36.4928C6.14724 35.4194 5.81936 34.5854 5.81936 33.9908C5.81936 33.4469 6.14724 32.6457 6.803 31.5873C7.45877 30.5289 8.39926 29.3428 9.62447 28.0292C10.8497 26.7155 12.3237 25.3882 14.0465 24.0472C15.7693 22.7062 17.6976 21.4701 19.8314 20.3388C21.9652 19.2076 24.2696 18.2933 26.7445 17.596C29.2195 16.8987 31.8239 16.5501 34.5578 16.5501C37.2879 16.5501 39.8882 16.8987 42.3588 17.596C44.8296 18.2933 47.134 19.2076 49.272 20.3388C51.41 21.4701 53.3391 22.7062 55.0594 24.0472C56.78 25.3882 58.253 26.7155 59.4784 28.0292C60.7035 29.3428 61.6439 30.5289 62.2996 31.5873C62.9553 32.6457 63.2832 33.4469 63.2832 33.9908C63.2832 34.5854 62.9553 35.4194 62.2996 36.4928C61.6439 37.5661 60.7035 38.7599 59.4784 40.0742C58.253 41.3884 56.78 42.7084 55.0594 44.0343C53.3391 45.3602 51.41 46.5803 49.272 47.6947C47.134 48.8092 44.8296 49.7086 42.3588 50.3932C39.8882 51.0778 37.2879 51.4201 34.5578 51.4201ZM34.5578 47.2443C36.3836 47.2443 38.0999 46.8952 39.7068 46.1971C41.3135 45.4989 42.7272 44.5405 43.9478 43.3218C45.1684 42.1031 46.1246 40.6955 46.8165 39.099C47.5081 37.5025 47.8538 35.7997 47.8538 33.9908C47.8538 32.1451 47.5081 30.421 46.8165 28.8184C46.1246 27.2157 45.1684 25.8091 43.9478 24.5984C42.7272 23.3877 41.3135 22.4446 39.7068 21.769C38.0999 21.0935 36.3836 20.7557 34.5578 20.7557C32.7119 20.7557 30.9815 21.0935 29.3667 21.769C27.7518 22.4446 26.335 23.3877 25.1163 24.5984C23.8976 25.8091 22.9474 27.2157 22.2657 28.8184C21.584 30.421 21.245 32.1451 21.2489 33.9908C21.2611 35.7997 21.6112 37.5025 22.299 39.099C22.9868 40.6955 23.937 42.1031 25.1496 43.3218C26.3622 44.5405 27.7719 45.4989 29.3787 46.1971C30.9856 46.8952 32.7119 47.2443 34.5578 47.2443ZM34.5816 38.1235C33.8036 38.1235 33.0974 37.9372 32.463 37.5647C31.8286 37.1922 31.3211 36.6937 30.9405 36.0692C30.56 35.4447 30.3697 34.7519 30.3697 33.9908C30.3697 33.2213 30.56 32.5242 30.9405 31.8998C31.3211 31.2753 31.8286 30.7778 32.463 30.4072C33.0974 30.0365 33.8036 29.8512 34.5816 29.8512C35.3391 29.8512 36.0331 30.0365 36.6636 30.4072C37.2942 30.7778 37.7979 31.2753 38.1747 31.8998C38.5514 32.5242 38.7398 33.2213 38.7398 33.9908C38.7398 34.7519 38.5514 35.4447 38.1747 36.0692C37.7979 36.6937 37.2942 37.1922 36.6636 37.5647C36.0331 37.9372 35.3391 38.1235 34.5816 38.1235Z" fill="#7FBA00"/>
</svg>
