<svg width="473" height="307" viewBox="0 0 473 307" fill="none" xmlns="http://www.w3.org/2000/svg">
<g clip-path="url(#clip0_268_66563)">
<path d="M76.841 142.957C83.7652 142.957 89.3784 137.331 89.3784 130.391C89.3784 123.452 83.7652 117.826 76.841 117.826C69.9169 117.826 64.3037 123.452 64.3037 130.391C64.3037 137.331 69.9169 142.957 76.841 142.957Z" fill="#FFB8B8"/>
<path d="M34.4775 280.966L37.6521 286.371L59.9651 276.672L55.2797 268.694L34.4775 280.966Z" fill="#FFB8B8"/>
<path d="M35.4291 278.549L41.6808 289.194L41.6811 289.194C42.2043 290.085 42.5472 291.07 42.6904 292.094C42.8336 293.118 42.7742 294.16 42.5157 295.16C42.2571 296.161 41.8043 297.101 41.1833 297.926C40.5623 298.751 39.7852 299.446 38.8963 299.97L38.6763 300.1L28.4404 282.672L35.4291 278.549Z" fill="#2F2E41"/>
<path d="M71.2598 300.439L77.518 300.438L80.495 276.246L71.2588 276.247L71.2598 300.439Z" fill="#FFB8B8"/>
<path d="M69.6631 298.391L81.9874 298.391H81.9879C83.0194 298.391 84.0407 298.594 84.9936 298.99C85.9465 299.385 86.8124 299.965 87.5417 300.696C88.271 301.427 88.8495 302.295 89.2442 303.25C89.6389 304.205 89.8421 305.228 89.8421 306.262V306.518L69.6635 306.519L69.6631 298.391Z" fill="#2F2E41"/>
<path d="M46.1003 285.781C45.7402 285.781 45.385 285.697 45.0636 285.534C44.7423 285.371 44.4637 285.134 44.2504 284.843L38.2149 276.628C38.0308 276.377 37.8993 276.092 37.8283 275.789C37.7574 275.486 37.7485 275.172 37.8021 274.865C37.8558 274.559 37.9709 274.266 38.1405 274.005C38.3101 273.745 38.5307 273.521 38.789 273.348L65.6461 255.37L49.4409 212.665L84.0953 215.531L85.2625 252.23C85.3721 255.572 84.5728 258.881 82.9503 261.803C81.3277 264.725 78.943 267.149 76.0513 268.817L47.248 285.472C46.8993 285.674 46.5034 285.781 46.1003 285.781Z" fill="#2F2E41"/>
<path d="M71.449 295.527C70.8547 295.526 70.2839 295.294 69.8567 294.88C69.4294 294.466 69.1788 293.902 69.1577 293.307L67.8877 257.556L83.614 256.726L82.3618 292.734C82.3434 293.304 82.1136 293.847 81.7172 294.257C81.3209 294.667 80.7864 294.914 80.218 294.95L71.6052 295.522C71.553 295.526 71.5009 295.527 71.449 295.527Z" fill="#2F2E41"/>
<path d="M88.1056 222.631C84.1045 222.631 70.1291 218.121 65.2774 216.513C64.5516 217.095 60.5643 220.083 55.91 219.537C53.0381 219.199 50.5099 217.57 48.3956 214.694C43.7264 208.343 49.4934 181.107 55.1535 159.378C56.2882 154.985 59.0778 151.205 62.9359 148.831C66.794 146.458 71.42 145.676 75.8416 146.649C79.0462 147.358 81.9902 148.949 84.3425 151.242C86.6949 153.536 88.3626 156.441 89.1582 159.633C90.2238 163.98 89.3071 169.094 88.6377 172.829C88.3231 174.584 88.0745 175.971 88.1595 176.653C88.488 179.286 90.3129 220.594 89.1395 222.358C89.0145 222.546 88.6531 222.631 88.1056 222.631Z" fill="#6C63FF"/>
<path d="M73.4686 222.704C74.1116 222.224 74.6419 221.609 75.022 220.902C75.4021 220.194 75.6229 219.412 75.6687 218.61C75.7146 217.808 75.5843 217.005 75.2872 216.259C74.9902 215.513 74.5334 214.841 73.9492 214.291L74.1969 164.234L62.4336 166.198L65.889 214.784C65.0318 215.829 64.5868 217.152 64.6384 218.504C64.6899 219.856 65.2344 221.142 66.1687 222.118C67.103 223.094 68.3621 223.693 69.7075 223.801C71.0529 223.909 72.3911 223.519 73.4686 222.704Z" fill="#FFB8B8"/>
<path d="M76.1891 196.381H63.5186C62.9136 196.379 62.3335 196.139 61.9037 195.712C61.4739 195.285 61.2289 194.706 61.2216 194.1L60.9105 159.674C60.8998 158.483 61.1246 157.303 61.572 156.2C62.0194 155.097 62.6805 154.094 63.5171 153.249C64.3537 152.404 65.3491 151.734 66.4459 151.277C67.5426 150.82 68.7189 150.585 69.9067 150.586C71.0945 150.588 72.2702 150.825 73.3658 151.285C74.4614 151.745 75.4553 152.418 76.2898 153.265C77.1243 154.112 77.783 155.116 78.2277 156.22C78.6724 157.324 78.8944 158.505 78.8807 159.696L78.486 194.105C78.477 194.711 78.2313 195.288 77.8017 195.714C77.3722 196.139 76.7931 196.379 76.1891 196.381Z" fill="#6C63FF"/>
<path d="M73.6484 142.904C67.9082 142.915 62.4928 138.367 61.4981 132.701C61.142 130.475 61.3025 128.197 61.9673 126.043C62.6891 123.592 63.927 121.324 65.5975 119.392C67.268 117.461 69.3322 115.91 71.6511 114.846C73.97 113.782 76.4896 113.228 79.04 113.222C81.5905 113.216 84.1126 113.759 86.4362 114.813C87.9718 115.509 89.4844 116.509 90.1875 118.045C90.8907 119.58 90.4506 121.726 88.9124 122.416C87.9073 122.868 86.6459 122.646 85.7542 123.294C84.4733 124.225 84.803 126.206 85.375 127.684C85.9469 129.163 86.5938 130.952 85.635 132.213C84.7416 133.388 82.9558 133.352 81.5491 132.91C80.1425 132.467 78.7541 131.726 77.2875 131.877C75.1485 132.097 73.6114 134.229 73.3269 136.365C73.0423 138.501 73.7121 140.637 74.3734 142.687L73.6484 142.904Z" fill="#2F2E41"/>
<path d="M132.208 307H0.510457C0.375075 307 0.245238 306.946 0.149509 306.85C0.0537797 306.754 0 306.624 0 306.488C0 306.352 0.0537797 306.222 0.149509 306.126C0.245238 306.03 0.375075 305.977 0.510457 305.977H132.208C132.344 305.977 132.473 306.03 132.569 306.126C132.665 306.222 132.719 306.352 132.719 306.488C132.719 306.624 132.665 306.754 132.569 306.85C132.473 306.946 132.344 307 132.208 307Z" fill="#CCCCCC"/>
<path d="M464.578 222.312H137.458C135.225 222.31 133.084 221.42 131.505 219.837C129.926 218.255 129.038 216.109 129.035 213.871V11.7127C129.037 10.0731 129.688 8.50117 130.844 7.34178C132.001 6.18239 133.57 5.53021 135.205 5.52832H466.723C468.387 5.53022 469.983 6.19366 471.16 7.37309C472.337 8.55252 472.999 10.1516 473 11.8196V213.871C472.998 216.109 472.11 218.255 470.531 219.837C468.952 221.42 466.811 222.31 464.578 222.312Z" fill="#F2F2F2"/>
<path d="M454.001 211.655H149.133C144.664 211.655 141.028 208.242 141.028 204.048V28.006C141.028 24.8955 143.723 22.3647 147.034 22.3647H456C459.367 22.3647 462.105 24.9372 462.105 28.0989V204.048C462.105 208.242 458.47 211.655 454.001 211.655Z" fill="white"/>
<path d="M472.883 12.7644H128.917V8.46678C128.92 6.22134 129.812 4.06888 131.397 2.4816C132.981 0.894325 135.13 0.00186188 137.37 0H464.43C466.67 0.00184295 468.819 0.894299 470.403 2.48158C471.988 4.06886 472.88 6.22133 472.883 8.46678V12.7644Z" fill="#3F3D56"/>
<path d="M144.279 8.58636C145.487 8.58636 146.466 7.60525 146.466 6.39499C146.466 5.18472 145.487 4.20361 144.279 4.20361C143.072 4.20361 142.093 5.18472 142.093 6.39499C142.093 7.60525 143.072 8.58636 144.279 8.58636Z" fill="white"/>
<path d="M152.578 8.58636C153.786 8.58636 154.765 7.60525 154.765 6.39499C154.765 5.18472 153.786 4.20361 152.578 4.20361C151.371 4.20361 150.392 5.18472 150.392 6.39499C150.392 7.60525 151.371 8.58636 152.578 8.58636Z" fill="white"/>
<path d="M160.878 8.58636C162.085 8.58636 163.064 7.60525 163.064 6.39499C163.064 5.18472 162.085 4.20361 160.878 4.20361C159.67 4.20361 158.691 5.18472 158.691 6.39499C158.691 7.60525 159.67 8.58636 160.878 8.58636Z" fill="white"/>
<path d="M294.335 60.8566H234.709C233.82 60.8566 232.968 60.5027 232.339 59.8727C231.711 59.2427 231.357 58.3883 231.357 57.4974C231.357 56.6065 231.711 55.752 232.339 55.1221C232.968 54.4921 233.82 54.1382 234.709 54.1382H294.335C295.224 54.1382 296.076 54.4921 296.705 55.1221C297.333 55.752 297.686 56.6065 297.686 57.4974C297.686 58.3883 297.333 59.2427 296.705 59.8727C296.076 60.5027 295.224 60.8566 294.335 60.8566Z" fill="#CCCCCC"/>
<path d="M368.425 60.8566H308.8C307.911 60.8566 307.059 60.5027 306.43 59.8727C305.801 59.2427 305.448 58.3883 305.448 57.4974C305.448 56.6065 305.801 55.752 306.43 55.1221C307.059 54.4921 307.911 54.1382 308.8 54.1382H368.425C369.314 54.1382 370.167 54.4921 370.795 55.1221C371.424 55.752 371.777 56.6065 371.777 57.4974C371.777 58.3883 371.424 59.2427 370.795 59.8727C370.167 60.5027 369.314 60.8566 368.425 60.8566Z" fill="#CCCCCC"/>
<path d="M368.426 73.5861H264.698C263.809 73.5861 262.957 73.2321 262.328 72.6022C261.7 71.9722 261.347 71.1178 261.347 70.2269C261.347 69.336 261.7 68.4815 262.328 67.8516C262.957 67.2216 263.809 66.8677 264.698 66.8677H368.426C369.314 66.8677 370.167 67.2216 370.796 67.8516C371.424 68.4815 371.777 69.336 371.777 70.2269C371.777 71.1178 371.424 71.9722 370.796 72.6022C370.167 73.2321 369.314 73.5861 368.426 73.5861Z" fill="#CCCCCC"/>
<path d="M294.334 47.9498H234.709C233.821 47.9487 232.969 47.5943 232.342 46.9645C231.714 46.3346 231.361 45.4808 231.361 44.5906C231.361 43.7004 231.714 42.8466 232.342 42.2168C232.969 41.5869 233.821 41.2325 234.709 41.2314H294.334C294.775 41.2309 295.211 41.3174 295.618 41.486C296.025 41.6545 296.395 41.9019 296.707 42.2139C297.019 42.5258 297.266 42.8963 297.435 43.3042C297.603 43.712 297.69 44.1492 297.69 44.5906C297.69 45.0321 297.603 45.4693 297.435 45.8771C297.266 46.2849 297.019 46.6554 296.707 46.9674C296.395 47.2794 296.025 47.5268 295.618 47.6953C295.211 47.8639 294.775 47.9504 294.334 47.9498Z" fill="#CCCCCC"/>
<path d="M327.146 48.1266H310.211C309.322 48.1266 308.47 47.7727 307.841 47.1427C307.212 46.5127 306.859 45.6583 306.859 44.7674C306.859 43.8765 307.212 43.0221 307.841 42.3921C308.47 41.7621 309.322 41.4082 310.211 41.4082H327.146C328.035 41.4082 328.888 41.7621 329.516 42.3921C330.145 43.0221 330.498 43.8765 330.498 44.7674C330.498 45.6583 330.145 46.5127 329.516 47.1427C328.888 47.7727 328.035 48.1266 327.146 48.1266Z" fill="#CCCCCC"/>
<path d="M251.644 73.5861H234.709C233.821 73.585 232.969 73.2306 232.342 72.6007C231.714 71.9709 231.361 71.1171 231.361 70.2269C231.361 69.3367 231.714 68.4829 232.342 67.853C232.969 67.2232 233.821 66.8688 234.709 66.8677H251.644C252.084 66.8671 252.521 66.9536 252.928 67.1222C253.335 67.2908 253.705 67.5381 254.017 67.8501C254.328 68.1621 254.576 68.5326 254.744 68.9404C254.913 69.3482 255 69.7854 255 70.2269C255 70.6684 254.913 71.1055 254.744 71.5133C254.576 71.9212 254.328 72.2917 254.017 72.6036C253.705 72.9156 253.335 73.163 252.928 73.3316C252.521 73.5001 252.084 73.5866 251.644 73.5861Z" fill="#CCCCCC"/>
<path d="M294.335 180.058H234.709C233.82 180.058 232.968 179.704 232.339 179.074C231.711 178.444 231.357 177.59 231.357 176.699C231.357 175.808 231.711 174.954 232.339 174.324C232.968 173.694 233.82 173.34 234.709 173.34H294.335C294.775 173.34 295.211 173.427 295.617 173.596C296.024 173.764 296.393 174.012 296.705 174.324C297.016 174.636 297.263 175.006 297.431 175.414C297.6 175.821 297.686 176.258 297.686 176.699C297.686 177.14 297.6 177.577 297.431 177.985C297.263 178.392 297.016 178.762 296.705 179.074C296.393 179.386 296.024 179.634 295.617 179.803C295.211 179.971 294.775 180.058 294.335 180.058Z" fill="#CCCCCC"/>
<path d="M368.425 180.058H308.8C307.911 180.058 307.059 179.704 306.43 179.074C305.801 178.444 305.448 177.59 305.448 176.699C305.448 175.808 305.801 174.954 306.43 174.324C307.059 173.694 307.911 173.34 308.8 173.34H368.425C368.866 173.34 369.301 173.427 369.708 173.596C370.115 173.764 370.484 174.012 370.795 174.324C371.107 174.636 371.354 175.006 371.522 175.414C371.69 175.821 371.777 176.258 371.777 176.699C371.777 177.14 371.69 177.577 371.522 177.985C371.354 178.392 371.107 178.762 370.795 179.074C370.484 179.386 370.115 179.634 369.708 179.803C369.301 179.971 368.866 180.058 368.425 180.058Z" fill="#CCCCCC"/>
<path d="M368.426 192.788H264.698C263.809 192.788 262.957 192.434 262.328 191.804C261.7 191.174 261.347 190.319 261.347 189.429C261.347 188.538 261.7 187.683 262.328 187.053C262.957 186.423 263.809 186.069 264.698 186.069H368.426C368.866 186.069 369.302 186.155 369.709 186.324C370.117 186.492 370.487 186.74 370.798 187.052C371.11 187.364 371.357 187.734 371.526 188.142C371.695 188.55 371.781 188.987 371.781 189.429C371.781 189.87 371.695 190.307 371.526 190.715C371.357 191.123 371.11 191.493 370.798 191.805C370.487 192.117 370.117 192.365 369.709 192.533C369.302 192.702 368.866 192.788 368.426 192.788Z" fill="#CCCCCC"/>
<path d="M294.335 167.151H234.709C233.82 167.151 232.968 166.797 232.339 166.167C231.711 165.537 231.357 164.683 231.357 163.792C231.357 162.901 231.711 162.046 232.339 161.417C232.968 160.787 233.82 160.433 234.709 160.433H294.335C295.224 160.433 296.076 160.787 296.705 161.417C297.333 162.046 297.686 162.901 297.686 163.792C297.686 164.683 297.333 165.537 296.705 166.167C296.076 166.797 295.224 167.151 294.335 167.151Z" fill="#CCCCCC"/>
<path d="M327.146 167.329H310.211C309.322 167.329 308.47 166.975 307.841 166.345C307.212 165.715 306.859 164.86 306.859 163.97C306.859 163.079 307.212 162.224 307.841 161.594C308.47 160.964 309.322 160.61 310.211 160.61H327.146C328.035 160.61 328.888 160.964 329.516 161.594C330.145 162.224 330.498 163.079 330.498 163.97C330.498 164.86 330.145 165.715 329.516 166.345C328.888 166.975 328.035 167.329 327.146 167.329Z" fill="#CCCCCC"/>
<path d="M251.644 192.788H234.709C233.82 192.788 232.968 192.434 232.339 191.804C231.711 191.174 231.357 190.319 231.357 189.429C231.357 188.538 231.711 187.683 232.339 187.053C232.968 186.423 233.82 186.069 234.709 186.069H251.644C252.085 186.069 252.521 186.155 252.928 186.324C253.335 186.492 253.705 186.74 254.017 187.052C254.329 187.364 254.576 187.734 254.745 188.142C254.913 188.55 255 188.987 255 189.429C255 189.87 254.913 190.307 254.745 190.715C254.576 191.123 254.329 191.493 254.017 191.805C253.705 192.117 253.335 192.365 252.928 192.533C252.521 192.702 252.085 192.788 251.644 192.788Z" fill="#CCCCCC"/>
<path d="M278.763 143.994C277.497 143.997 276.282 143.499 275.382 142.608L252.968 120.425C252.528 119.99 252.179 119.471 251.94 118.899C251.702 118.327 251.579 117.714 251.579 117.094C251.579 116.474 251.702 115.861 251.94 115.289C252.179 114.717 252.528 114.198 252.968 113.763L275.291 91.6698C276.221 90.7539 277.474 90.2425 278.778 90.2466C280.082 90.2507 281.331 90.77 282.255 91.6918C283.181 92.6211 283.7 93.8801 283.7 95.1928C283.7 96.5055 283.181 97.7646 282.256 98.6938L265.668 115.319C265.151 115.838 264.861 116.542 264.861 117.275C264.861 118.008 265.151 118.712 265.668 119.231L282.166 135.766C282.839 136.44 283.298 137.299 283.484 138.234C283.67 139.17 283.575 140.14 283.211 141.021C282.846 141.902 282.229 142.655 281.437 143.184C280.645 143.714 279.714 143.996 278.763 143.994V143.994Z" fill="#6C63FF"/>
<path d="M314.477 143.994C313.525 143.996 312.594 143.714 311.802 143.184C311.011 142.655 310.393 141.902 310.029 141.021C309.664 140.14 309.569 139.17 309.755 138.234C309.941 137.299 310.4 136.44 311.074 135.766L327.572 119.231C328.089 118.712 328.379 118.008 328.379 117.275C328.379 116.542 328.089 115.838 327.572 115.319L310.984 98.6939C310.525 98.2341 310.161 97.6883 309.913 97.0876C309.665 96.4869 309.537 95.843 309.537 95.1928C309.537 94.5426 309.665 93.8988 309.913 93.2981C310.161 92.6974 310.525 92.1516 310.984 91.6918C311.908 90.77 313.158 90.2507 314.462 90.2466C315.766 90.2425 317.019 90.7539 317.949 91.6698L340.271 113.763C340.711 114.198 341.061 114.717 341.299 115.289C341.538 115.861 341.661 116.474 341.661 117.094C341.661 117.714 341.538 118.327 341.299 118.899C341.061 119.471 340.711 119.99 340.271 120.425L317.858 142.608C316.957 143.499 315.742 143.997 314.477 143.994Z" fill="#6C63FF"/>
</g>
<defs>
<clipPath id="clip0_268_66563">
<rect width="473" height="307" fill="white"/>
</clipPath>
</defs>
</svg>
