<svg width="35" height="35" viewBox="0 0 35 35" fill="none" xmlns="http://www.w3.org/2000/svg">
<rect width="35" height="35" fill="white"/>
<path d="M17.5494 29.0001L20.7809 10.8262C23.861 10.8262 24.8326 11.1639 24.9729 12.5426C24.9729 12.5426 27.0391 11.7721 28.0812 10.2074C24.0145 8.32299 19.9284 8.23801 19.9284 8.23801L17.5441 11.1421L17.5494 11.1417L15.1651 8.23755C15.1651 8.23755 11.0789 8.32262 7.0127 10.2071C8.05392 11.7718 10.121 12.5422 10.121 12.5422C10.2621 11.1635 11.2325 10.8257 14.2919 10.8236L17.5494 29.0001Z" fill="#E82127"/>
<path d="M17.5493 7.39912C20.8367 7.37398 24.5994 7.90767 28.4514 9.58652C28.9662 8.65987 29.0986 8.25034 29.0986 8.25034C24.8878 6.58442 20.9445 6.0143 17.5488 6C14.1533 6.0143 10.2102 6.58451 6 8.25034C6 8.25034 6.18782 8.75479 6.64673 9.58652C10.4979 7.90767 14.2614 7.37398 17.5488 7.39912H17.5493Z" fill="#E82127"/>
</svg>
