<svg width="93" height="37" viewBox="0 0 93 37" fill="none" xmlns="http://www.w3.org/2000/svg">
<path d="M42.6914 22.125L44.7422 21.8438C44.7969 23.1562 45.043 24.0547 45.4805 24.5391C45.918 25.0234 46.5234 25.2656 47.2969 25.2656C47.8672 25.2656 48.3594 25.1367 48.7734 24.8789C49.1875 24.6133 49.4727 24.2578 49.6289 23.8125C49.7852 23.3594 49.8633 22.6406 49.8633 21.6562V9.82031H52.1367V21.5273C52.1367 22.9648 51.9609 24.0781 51.6094 24.8672C51.2656 25.6562 50.7148 26.2578 49.957 26.6719C49.207 27.0859 48.3242 27.293 47.3086 27.293C45.8008 27.293 44.6445 26.8594 43.8398 25.9922C43.043 25.125 42.6602 23.8359 42.6914 22.125ZM54.7969 20.7773C54.7969 18.4727 55.4375 16.7656 56.7188 15.6562C57.7891 14.7344 59.0938 14.2734 60.6328 14.2734C62.3438 14.2734 63.7422 14.8359 64.8281 15.9609C65.9141 17.0781 66.457 18.625 66.457 20.6016C66.457 22.2031 66.2148 23.4648 65.7305 24.3867C65.2539 25.3008 64.5547 26.0117 63.6328 26.5195C62.7188 27.0273 61.7188 27.2812 60.6328 27.2812C58.8906 27.2812 57.4805 26.7227 56.4023 25.6055C55.332 24.4883 54.7969 22.8789 54.7969 20.7773ZM56.9648 20.7773C56.9648 22.3711 57.3125 23.5664 58.0078 24.3633C58.7031 25.1523 59.5781 25.5469 60.6328 25.5469C61.6797 25.5469 62.5508 25.1484 63.2461 24.3516C63.9414 23.5547 64.2891 22.3398 64.2891 20.707C64.2891 19.168 63.9375 18.0039 63.2344 17.2148C62.5391 16.418 61.6719 16.0195 60.6328 16.0195C59.5781 16.0195 58.7031 16.4141 58.0078 17.2031C57.3125 17.9922 56.9648 19.1836 56.9648 20.7773ZM70.8867 27H68.9297V9.82031H71.0391V15.9492C71.9297 14.832 73.0664 14.2734 74.4492 14.2734C75.2148 14.2734 75.9375 14.4297 76.6172 14.7422C77.3047 15.0469 77.8672 15.4805 78.3047 16.043C78.75 16.5977 79.0977 17.2695 79.3477 18.0586C79.5977 18.8477 79.7227 19.6914 79.7227 20.5898C79.7227 22.7227 79.1953 24.3711 78.1406 25.5352C77.0859 26.6992 75.8203 27.2812 74.3438 27.2812C72.875 27.2812 71.7227 26.668 70.8867 25.4414V27ZM70.8633 20.6836C70.8633 22.1758 71.0664 23.2539 71.4727 23.918C72.1367 25.0039 73.0352 25.5469 74.168 25.5469C75.0898 25.5469 75.8867 25.1484 76.5586 24.3516C77.2305 23.5469 77.5664 22.3516 77.5664 20.7656C77.5664 19.1406 77.2422 17.9414 76.5938 17.168C75.9531 16.3945 75.1758 16.0078 74.2617 16.0078C73.3398 16.0078 72.543 16.4102 71.8711 17.2148C71.1992 18.0117 70.8633 19.168 70.8633 20.6836ZM81.457 23.2852L83.543 22.957C83.6602 23.793 83.9844 24.4336 84.5156 24.8789C85.0547 25.3242 85.8047 25.5469 86.7656 25.5469C87.7344 25.5469 88.4531 25.3516 88.9219 24.9609C89.3906 24.5625 89.625 24.0977 89.625 23.5664C89.625 23.0898 89.418 22.7148 89.0039 22.4414C88.7148 22.2539 87.9961 22.0156 86.8477 21.7266C85.3008 21.3359 84.2266 21 83.625 20.7188C83.0312 20.4297 82.5781 20.0352 82.2656 19.5352C81.9609 19.0273 81.8086 18.4688 81.8086 17.8594C81.8086 17.3047 81.9336 16.793 82.1836 16.3242C82.4414 15.8477 82.7891 15.4531 83.2266 15.1406C83.5547 14.8984 84 14.6953 84.5625 14.5312C85.1328 14.3594 85.7422 14.2734 86.3906 14.2734C87.3672 14.2734 88.2227 14.4141 88.957 14.6953C89.6992 14.9766 90.2461 15.3594 90.5977 15.8438C90.9492 16.3203 91.1914 16.9609 91.3242 17.7656L89.2617 18.0469C89.168 17.4062 88.8945 16.9062 88.4414 16.5469C87.9961 16.1875 87.3633 16.0078 86.543 16.0078C85.5742 16.0078 84.8828 16.168 84.4688 16.4883C84.0547 16.8086 83.8477 17.1836 83.8477 17.6133C83.8477 17.8867 83.9336 18.1328 84.1055 18.3516C84.2773 18.5781 84.5469 18.7656 84.9141 18.9141C85.125 18.9922 85.7461 19.1719 86.7773 19.4531C88.2695 19.8516 89.3086 20.1797 89.8945 20.4375C90.4883 20.6875 90.9531 21.0547 91.2891 21.5391C91.625 22.0234 91.793 22.625 91.793 23.3438C91.793 24.0469 91.5859 24.7109 91.1719 25.3359C90.7656 25.9531 90.1758 26.4336 89.4023 26.7773C88.6289 27.1133 87.7539 27.2812 86.7773 27.2812C85.1602 27.2812 83.9258 26.9453 83.0742 26.2734C82.2305 25.6016 81.6914 24.6055 81.457 23.2852Z" fill="#0A66C2"/>
<path d="M31.5264 31.5262H26.044V22.94C26.044 20.8924 26.0074 18.2567 23.1927 18.2567C20.3372 18.2567 19.9003 20.4874 19.9003 22.7908V31.5256H14.418V13.8687H19.681V16.2817C20.7526 14.4493 22.8262 13.3509 24.9476 13.4296C30.5041 13.4296 31.5287 17.0847 31.5287 21.84L31.5264 31.5262ZM8.23211 11.4551C6.48679 11.4551 5.04995 10.019 5.04995 8.27354C5.04995 6.52808 6.48613 5.09179 8.23145 5.09179C9.97661 5.09179 11.4126 6.52775 11.413 8.27287C11.413 10.018 9.97711 11.455 8.23211 11.4551ZM10.9732 31.5262H5.48521V13.8687H10.9732V31.5262ZM34.2594 0.000234844H2.73019C1.25016 -0.0164816 0.0180391 1.1871 0 2.66725V34.3298C0.0173771 35.8108 1.24933 37.0157 2.73019 36.9998H34.2594C35.7439 37.0185 36.9801 35.8138 37 34.3298V2.66509C36.9801 1.1818 35.7422 -0.0192952 34.2594 0.000234844Z" fill="#0A66C2"/>
</svg>
