<svg width="15" height="15" viewBox="0 0 15 15" fill="none" xmlns="http://www.w3.org/2000/svg">
<path d="M8.52257 12.8184C8.41868 12.9975 8.26957 13.1461 8.09016 13.2494C7.91075 13.3528 7.70734 13.4072 7.5003 13.4072C7.29326 13.4072 7.08985 13.3528 6.91044 13.2494C6.73103 13.1461 6.58192 12.9975 6.47803 12.8184" stroke="#585757" stroke-linecap="round" stroke-linejoin="round"/>
<path d="M11.4181 8.09114C11.1552 7.12879 11.0298 6.13408 11.0458 5.1366" stroke="#585757" stroke-linecap="round" stroke-linejoin="round"/>
<path d="M4.10849 4.10828C4.00583 4.44132 3.95404 4.78795 3.95486 5.13646C3.95486 9.27282 2.18213 10.4546 2.18213 10.4546H10.4549" stroke="#585757" stroke-linecap="round" stroke-linejoin="round"/>
<path d="M11.0454 5.13629C11.0464 4.49401 10.8728 3.86353 10.5433 3.3122C10.2138 2.76088 9.74078 2.30941 9.17466 2.00603C8.60855 1.70265 7.97066 1.55874 7.32912 1.58969C6.68759 1.62064 6.06651 1.82527 5.53223 2.18174" stroke="#585757" stroke-linecap="round" stroke-linejoin="round"/>
<path d="M1 1L14 14" stroke="#3080CF" stroke-linecap="round" stroke-linejoin="round"/>
</svg>
