<svg width="15" height="15" viewBox="0 0 15 15" fill="none" xmlns="http://www.w3.org/2000/svg">
<path d="M11.1667 4.60068C11.1667 3.64572 10.7804 2.72987 10.0927 2.05462C9.40509 1.37936 8.47246 1 7.5 1C6.52754 1 5.59491 1.37936 4.90728 2.05462C4.21964 2.72987 3.83333 3.64572 3.83333 4.60068C3.83333 8.80148 2 10.0017 2 10.0017H13C13 10.0017 11.1667 8.80148 11.1667 4.60068Z" fill="#3080CF"/>
<path d="M8.55732 12.402C8.44988 12.5839 8.29566 12.7348 8.11012 12.8398C7.92458 12.9447 7.71421 13 7.50009 13C7.28597 13 7.07561 12.9447 6.89007 12.8398C6.70452 12.7348 6.55031 12.5839 6.44287 12.402" stroke="#3080CF" stroke-width="0.75" stroke-linecap="round" stroke-linejoin="round"/>
</svg>
