<svg width="15" height="15" viewBox="0 0 15 15" fill="none" xmlns="http://www.w3.org/2000/svg">
<path d="M2 7C2 7.17939 2.06424 7.33212 2.19272 7.45819C2.32121 7.58424 2.47273 7.64727 2.64727 7.64727H7.35273V12.3527C7.35273 12.5273 7.41576 12.6788 7.54181 12.8073C7.66787 12.9358 7.8206 13 8 13C8.17939 13 8.33333 12.9358 8.46182 12.8073C8.5903 12.6788 8.65454 12.5273 8.65454 12.3527V7.64727H13.3527C13.5273 7.64727 13.6788 7.58424 13.8073 7.45819C13.9358 7.33212 14 7.17939 14 7C14 6.82061 13.9358 6.66667 13.8073 6.53818C13.6788 6.4097 13.5273 6.34546 13.3527 6.34546H8.65454V1.64727C8.65454 1.47273 8.5903 1.32121 8.46182 1.19272C8.33333 1.06424 8.17939 1 8 1C7.8206 1 7.66787 1.06424 7.54181 1.19272C7.41576 1.32121 7.35273 1.47273 7.35273 1.64727V6.34546H2.64727C2.47273 6.34546 2.32121 6.4097 2.19272 6.53818C2.06424 6.66667 2 6.82061 2 7Z" fill="black"/>
</svg>
