<svg width="15" height="15" viewBox="0 0 15 15" fill="none" xmlns="http://www.w3.org/2000/svg">
<path d="M7.5 14.0625C5.75952 14.0625 4.09032 13.3711 2.85961 12.1404C1.6289 10.9097 0.9375 9.24048 0.9375 7.5C0.9375 5.75952 1.6289 4.09032 2.85961 2.85961C4.09032 1.6289 5.75952 0.9375 7.5 0.9375C9.24048 0.9375 10.9097 1.6289 12.1404 2.85961C13.3711 4.09032 14.0625 5.75952 14.0625 7.5C14.0625 9.24048 13.3711 10.9097 12.1404 12.1404C10.9097 13.3711 9.24048 14.0625 7.5 14.0625ZM7.5 15C9.48912 15 11.3968 14.2098 12.8033 12.8033C14.2098 11.3968 15 9.48912 15 7.5C15 5.51088 14.2098 3.60322 12.8033 2.1967C11.3968 0.790176 9.48912 0 7.5 0C5.51088 0 3.60322 0.790176 2.1967 2.1967C0.790176 3.60322 0 5.51088 0 7.5C0 9.48912 0.790176 11.3968 2.1967 12.8033C3.60322 14.2098 5.51088 15 7.5 15V15Z" fill="black"/>
<path d="M4.92647 5.42437C4.92519 5.45465 4.93011 5.48487 4.94094 5.51317C4.95176 5.54147 4.96826 5.56726 4.98943 5.58895C5.01059 5.61064 5.03596 5.62777 5.06399 5.63929C5.09202 5.65081 5.12211 5.65648 5.15241 5.65594H5.92584C6.05522 5.65594 6.15834 5.55 6.17522 5.42156C6.25959 4.80656 6.68147 4.35844 7.43334 4.35844C8.07647 4.35844 8.66522 4.68 8.66522 5.45344C8.66522 6.04875 8.31459 6.3225 7.76053 6.73875C7.12959 7.19719 6.62991 7.7325 6.66553 8.60156L6.66834 8.805C6.66933 8.86651 6.69445 8.92516 6.7383 8.96831C6.78215 9.01146 6.8412 9.03563 6.90272 9.03562H7.66303C7.72519 9.03562 7.78481 9.01093 7.82876 8.96698C7.87271 8.92302 7.89741 8.86341 7.89741 8.80125V8.70281C7.89741 8.02969 8.15334 7.83375 8.84428 7.30969C9.41522 6.87562 10.0105 6.39375 10.0105 5.38219C10.0105 3.96563 8.81428 3.28125 7.50459 3.28125C6.31678 3.28125 5.01553 3.83437 4.92647 5.42437V5.42437ZM6.38616 10.8272C6.38616 11.3269 6.78459 11.6962 7.33303 11.6962C7.90397 11.6962 8.29678 11.3269 8.29678 10.8272C8.29678 10.3097 7.90303 9.94594 7.33209 9.94594C6.78459 9.94594 6.38616 10.3097 6.38616 10.8272Z" fill="black"/>
</svg>
