<svg width="15" height="15" viewBox="0 0 15 15" fill="none" xmlns="http://www.w3.org/2000/svg">
<path d="M0 5.27669C0 6.28213 0.271309 7.27696 0.813928 8.26117C1.35655 9.24538 2.12706 10.2036 3.12547 11.1359C4.12388 12.0682 5.30316 12.9591 6.66331 13.8088C6.74049 13.856 6.82852 13.8997 6.92739 13.9398C7.02627 13.9799 7.11189 14 7.18423 14C7.2614 14 7.34942 13.9799 7.4483 13.9398C7.54718 13.8997 7.6352 13.856 7.71237 13.8088C9.07253 12.9591 10.2506 12.0682 11.2466 11.1359C12.2426 10.2036 13.0119 9.24538 13.5545 8.26117C14.0971 7.27696 14.3684 6.28213 14.3684 5.27669C14.3684 4.64888 14.2659 4.07417 14.061 3.55257C13.856 3.03096 13.569 2.57898 13.2 2.19663C12.831 1.81427 12.3969 1.51925 11.8977 1.31156C11.3985 1.10385 10.8547 1 10.2663 1C9.59585 1 8.99656 1.14398 8.46842 1.43193C7.94027 1.71987 7.51221 2.10222 7.18423 2.57898C6.86107 2.10222 6.43422 1.71987 5.90366 1.43193C5.3731 1.14398 4.77261 1 4.10218 1C3.51856 1 2.97716 1.10385 2.47795 1.31156C1.97875 1.51925 1.54345 1.81427 1.17205 2.19663C0.800661 2.57898 0.512471 3.03096 0.307483 3.55257C0.102494 4.07417 0 4.64888 0 5.27669ZM1.16482 5.27669C1.16482 4.64888 1.29144 4.10013 1.54466 3.63045C1.79787 3.16077 2.14514 2.79494 2.58647 2.53295C3.0278 2.27098 3.52821 2.13999 4.0877 2.13999C4.54109 2.13999 4.93419 2.21905 5.26699 2.37718C5.5998 2.53532 5.88196 2.7324 6.11347 2.96842C6.34499 3.20444 6.53792 3.44046 6.69226 3.67648C6.79355 3.81809 6.87916 3.91367 6.9491 3.96324C7.01904 4.0128 7.09741 4.03758 7.18423 4.03758C7.27105 4.03758 7.34822 4.01162 7.41575 3.9597C7.48327 3.90778 7.57009 3.81337 7.6762 3.67648C7.84019 3.44518 8.03914 3.21034 8.27307 2.97196C8.50701 2.73358 8.78676 2.53532 9.11232 2.37718C9.43789 2.21905 9.82737 2.13999 10.2807 2.13999C10.8402 2.13999 11.3407 2.27098 11.782 2.53295C12.2233 2.79494 12.5706 3.16077 12.8238 3.63045C13.077 4.10013 13.2037 4.64888 13.2037 5.27669C13.2037 5.93282 13.0421 6.59722 12.7189 7.26989C12.3957 7.94255 11.958 8.60222 11.4058 9.24891C10.8535 9.89561 10.2265 10.5128 9.52471 11.1005C8.82293 11.6882 8.09341 12.2275 7.33617 12.7184C7.25417 12.7751 7.20352 12.8034 7.18423 12.8034C7.16494 12.8034 7.11671 12.7751 7.03953 12.7184C6.28228 12.2275 5.55277 11.6882 4.85098 11.1005C4.1492 10.5128 3.52097 9.89561 2.96631 9.24891C2.41163 8.60222 1.97271 7.94255 1.64956 7.26989C1.3264 6.59722 1.16482 5.93282 1.16482 5.27669Z" fill="#0A66C2"/>
</svg>
