<svg width="23" height="23" viewBox="0 0 23 23" fill="none" xmlns="http://www.w3.org/2000/svg">
<g clip-path="url(#clip0_319_65885)">
<path d="M11.5494 23.0001L14.7809 4.8262C17.861 4.8262 18.8326 5.1639 18.9729 6.5426C18.9729 6.5426 21.0391 5.7721 22.0812 4.2074C18.0145 2.32299 13.9284 2.23801 13.9284 2.23801L11.5441 5.1421L11.5494 5.1417L9.1651 2.23755C9.1651 2.23755 5.0789 2.32262 1.0127 4.2071C2.05392 5.7718 4.121 6.5422 4.121 6.5422C4.2621 5.1635 5.23249 4.8257 8.29189 4.8236L11.5494 23.0001Z" fill="#E82127"/>
<path d="M11.5493 1.39912C14.8367 1.37398 18.5994 1.90767 22.4514 3.58652C22.9662 2.65987 23.0986 2.25034 23.0986 2.25034C18.8878 0.58442 14.9445 0.0143 11.5488 0C8.1533 0.0143 4.2102 0.58451 0 2.25034C0 2.25034 0.18782 2.75479 0.64673 3.58652C4.4979 1.90767 8.2614 1.37398 11.5488 1.39912H11.5493Z" fill="#E82127"/>
</g>
<defs>
<clipPath id="clip0_319_65885">
<rect width="23" height="23" fill="white"/>
</clipPath>
</defs>
</svg>
