<svg width="14" height="14" viewBox="0 0 14 14" fill="none" xmlns="http://www.w3.org/2000/svg">
<g clip-path="url(#clip0_319_63566)">
<path d="M11.9289 11.9288H9.85448V8.67998C9.85448 7.90525 9.84064 6.90794 8.7756 6.90794C7.69515 6.90794 7.52983 7.752 7.52983 8.62356V11.9286H5.45547V5.24763H7.44686V6.16064C7.85232 5.46732 8.63696 5.05168 9.43962 5.08148C11.5421 5.08148 11.9298 6.4645 11.9298 8.26378L11.9289 11.9288ZM3.11485 4.33437C2.45446 4.33437 1.91079 3.79097 1.91079 3.13053C1.91079 2.47008 2.45421 1.92662 3.1146 1.92662C3.77493 1.92662 4.31829 2.46996 4.31841 3.13028C4.31841 3.7906 3.77512 4.33431 3.11485 4.33437ZM4.15203 11.9288H2.07548V5.24763H4.15203V11.9288ZM12.963 8.88599e-05H1.03305C0.473034 -0.00623627 0.0068256 0.449172 0 1.00923V12.9897C0.00657512 13.55 0.472721 14.0059 1.03305 13.9999H12.963C13.5247 14.007 13.9925 13.5511 14 12.9897V1.00841C13.9925 0.447168 13.5241 -0.0073009 12.963 8.88599e-05Z" fill="white"/>
</g>
<defs>
<clipPath id="clip0_319_63566">
<rect width="14" height="14" fill="white"/>
</clipPath>
</defs>
</svg>
